{
	"asset":{
		"generator":"Khronos glTF Blender I/O v3.6.27",
		"version":"2.0"
	},
	"scene":0,
	"scenes":[
		{
			"name":"Scene",
			"nodes":[
				0,
				1
			]
		}
	],
	"nodes":[
		{
			"mesh":0,
			"name":"Cube.002",
			"rotation":[
				-0.9999883770942688,
				0,
				0,
				0.004820729605853558
			],
			"scale":[
				0.050949349999427795,
				1,
				0.6831721663475037
			],
			"translation":[
				-0.10475849360227585,
				1.1930054426193237,
				1.1168631315231323
			]
		},
		{
			"mesh":1,
			"name":"Cube.005",
			"translation":[
				0.9244415163993835,
				1.746071696281433,
				-0.3155015707015991
			]
		}
	],
	"materials":[
		{
			"doubleSided":true,
			"name":"Material.001",
			"pbrMetallicRoughness":{
				"baseColorFactor":[
					0.800000011920929,
					0.800000011920929,
					0.800000011920929,
					1
				],
				"metallicFactor":0,
				"roughnessFactor":0.5
			}
		}
	],
	"meshes":[
		{
			"name":"Cube.007",
			"primitives":[
				{
					"attributes":{
						"POSITION":0,
						"NORMAL":1,
						"TEXCOORD_0":2
					},
					"indices":3,
					"material":0
				}
			]
		},
		{
			"name":"Mesh",
			"primitives":[
				{
					"attributes":{
						"POSITION":4,
						"NORMAL":5,
						"TEXCOORD_0":6
					},
					"indices":7
				}
			]
		}
	],
	"accessors":[
		{
			"bufferView":0,
			"componentType":5126,
			"count":24,
			"max":[
				1,
				1,
				1.83319091796875
			],
			"min":[
				-1,
				-1,
				-1
			],
			"type":"VEC3"
		},
		{
			"bufferView":1,
			"componentType":5126,
			"count":24,
			"type":"VEC3"
		},
		{
			"bufferView":2,
			"componentType":5126,
			"count":24,
			"type":"VEC2"
		},
		{
			"bufferView":3,
			"componentType":5123,
			"count":36,
			"type":"SCALAR"
		},
		{
			"bufferView":4,
			"componentType":5126,
			"count":2961,
			"max":[
				-0.8954690098762512,
				1.000000238418579,
				0.9166667461395264
			],
			"min":[
				-0.995455265045166,
				-0.8828829526901245,
				-0.9166668057441711
			],
			"type":"VEC3"
		},
		{
			"bufferView":5,
			"componentType":5126,
			"count":2961,
			"type":"VEC3"
		},
		{
			"bufferView":6,
			"componentType":5126,
			"count":2961,
			"type":"VEC2"
		},
		{
			"bufferView":7,
			"componentType":5123,
			"count":5376,
			"type":"SCALAR"
		}
	],
	"bufferViews":[
		{
			"buffer":0,
			"byteLength":288,
			"byteOffset":0,
			"target":34962
		},
		{
			"buffer":0,
			"byteLength":288,
			"byteOffset":288,
			"target":34962
		},
		{
			"buffer":0,
			"byteLength":192,
			"byteOffset":576,
			"target":34962
		},
		{
			"buffer":0,
			"byteLength":72,
			"byteOffset":768,
			"target":34963
		},
		{
			"buffer":0,
			"byteLength":35532,
			"byteOffset":840,
			"target":34962
		},
		{
			"buffer":0,
			"byteLength":35532,
			"byteOffset":36372,
			"target":34962
		},
		{
			"buffer":0,
			"byteLength":23688,
			"byteOffset":71904,
			"target":34962
		},
		{
			"buffer":0,
			"byteLength":10752,
			"byteOffset":95592,
			"target":34963
		}
	],
	"buffers":[
		{
			"byteLength":106344,
			"uri":"data:application/octet-stream;base64,"
		}
	]
}
